<svg width="405" height="94" viewBox="0 0 405 94" fill="none" xmlns="http://www.w3.org/2000/svg">
<path d="M329 93V0.839996H346.664L386.728 62.28V0.839996H404.392V93H386.728L346.664 31.56V93H329Z" fill="#D9D9D9"/>
<path d="M307 67V1H324V67H307Z" fill="#D9D9D9"/>
<path d="M267 93V0.839996H284.408V76.744H324.088V93H267Z" fill="#D9D9D9"/>
<path d="M262.288 1L262.304 93.16H244.384V17.384L197.92 93.16H180L236.304 1H262.288Z" fill="#D9D9D9"/>
<path d="M149.016 93.16L149 1H166.92V76.776L213.384 1H231.304L175 93.16H149.016Z" fill="#D9D9D9"/>
<path d="M87 93.16V1H104.408V76.904H144.088V93.16H87Z" fill="#FF6550"/>
<path d="M82.288 1L82.304 93.16H64.384L64.384 17.384L17.92 93.16H0L56.304 1H82.288Z" fill="#FF6550"/>
</svg>
