<svg width="48" height="48" viewBox="0 0 2400 2400" fill="none" xmlns="http://www.w3.org/2000/svg">
<path d="M2400 1200C2400 1862.74 1862.74 2400 1200 2400C537.258 2400 0 1862.74 0 1200C0 537.258 537.258 0 1200 0C1862.74 0 2400 537.258 2400 1200ZM141.872 1200C141.872 1784.39 615.612 2258.13 1200 2258.13C1784.39 2258.13 2258.13 1784.39 2258.13 1200C2258.13 615.612 1784.39 141.872 1200 141.872C615.612 141.872 141.872 615.612 141.872 1200Z" fill="#808080"/>
<path fill-rule="evenodd" clip-rule="evenodd" d="M484 756C484 606.883 604.883 486 754 486H1512V890H1916V1090H1489.92C1445.54 973.092 1332.47 890 1200 890C1067.53 890 954.464 973.092 910.083 1090H484V756Z" fill="#808080"/>
<path fill-rule="evenodd" clip-rule="evenodd" d="M1646 591H754C662.873 591 589 664.873 589 756V1648C589 1739.13 662.873 1813 754 1813H1646C1737.13 1813 1811 1739.13 1811 1648V756C1811 664.873 1737.13 591 1646 591ZM754 486C604.883 486 484 606.883 484 756V1648C484 1797.12 604.883 1918 754 1918H1646C1795.12 1918 1916 1797.12 1916 1648V756C1916 606.883 1795.12 486 1646 486H754Z" fill="#808080"/>
<path d="M1607 1200C1607 1424.78 1424.78 1607 1200 1607C975.22 1607 793 1424.78 793 1200C793 975.22 975.22 793 1200 793C1424.78 793 1607 975.22 1607 1200ZM897.092 1200C897.092 1367.29 1032.71 1502.91 1200 1502.91C1367.29 1502.91 1502.91 1367.29 1502.91 1200C1502.91 1032.71 1367.29 897.092 1200 897.092C1032.71 897.092 897.092 1032.71 897.092 1200Z" fill="#808080"/>
</svg>
