<svg width="48" height="48" viewBox="0 0 2400 2400" fill="none" xmlns="http://www.w3.org/2000/svg">
<path d="M2400 1200C2400 1862.74 1862.74 2400 1200 2400C537.258 2400 0 1862.74 0 1200C0 537.258 537.258 0 1200 0C1862.74 0 2400 537.258 2400 1200ZM141.872 1200C141.872 1784.39 615.612 2258.13 1200 2258.13C1784.39 2258.13 2258.13 1784.39 2258.13 1200C2258.13 615.612 1784.39 141.872 1200 141.872C615.612 141.872 141.872 615.612 141.872 1200Z" fill="#808080"/>
<path fill-rule="evenodd" clip-rule="evenodd" d="M1111.63 1233.73C1163.56 1270.48 1233.02 1270.48 1284.95 1233.73L1334.45 1198.69L1918.01 1732.19C1900.7 1739.16 1881.8 1743 1862 1743H538C517.298 1743 497.576 1738.81 479.636 1731.22L1062.13 1198.69L1111.63 1233.73ZM405.547 1663.46L978.597 1139.57L406.947 734.97C394.878 756.582 388 781.488 388 808V1593C388 1618.47 394.348 1642.46 405.547 1663.46ZM484.936 667.656C501.433 661.415 519.318 658 538 658H1862C1879.84 658 1896.95 661.114 1912.82 666.827L1227.18 1152.1C1209.87 1164.35 1186.71 1164.35 1169.41 1152.1L484.936 667.656ZM1992.07 733.244L1417.98 1139.57L1993.32 1665.55C2005.22 1644.05 2012 1619.32 2012 1593V808C2012 780.779 2004.75 755.252 1992.07 733.244Z" fill="#808080"/>
</svg>
