<svg width="48" height="48" viewBox="0 0 2400 2400" fill="none" xmlns="http://www.w3.org/2000/svg">
<path d="M2400 1200C2400 1862.74 1862.74 2400 1200 2400C537.258 2400 0 1862.74 0 1200C0 537.258 537.258 0 1200 0C1862.74 0 2400 537.258 2400 1200ZM141.872 1200C141.872 1784.39 615.612 2258.13 1200 2258.13C1784.39 2258.13 2258.13 1784.39 2258.13 1200C2258.13 615.612 1784.39 141.872 1200 141.872C615.612 141.872 141.872 615.612 141.872 1200Z" fill="#808080"/>
<path d="M725 622.184C758.6 610.984 817.667 617.517 849 622.184C866.6 624.398 885.667 633.773 887 638.184L999 918.184C997.667 930.851 992.2 960.584 981 978.184C969.8 995.784 929.667 1041.52 911 1062.18C903 1064.18 889 1074.58 897 1100.18C907 1132.18 983 1248.18 1085 1342.18C1187 1436.18 1329 1498.18 1353 1498.18C1372.2 1498.18 1383.67 1479.52 1387 1470.18C1414.33 1432.85 1472.6 1354.98 1487 1342.18C1501.4 1329.38 1530.33 1330.18 1543 1332.18L1807 1462.18C1813.67 1464.85 1827.4 1475.78 1829 1498.18C1831 1526.18 1815 1620.18 1799 1646.18C1783 1672.18 1711 1740.18 1647 1762.18C1583 1784.18 1517 1784.18 1487 1782.18C1457 1780.18 1181 1748.18 887 1470.18C593 1192.18 571 994.184 571 918.184C571 842.184 595 776.184 605 754.184C615 732.184 683 636.184 725 622.184Z" fill="#808080"/>
</svg>
